<svg width="535" height="224" viewBox="0 0 535 224" fill="none" xmlns="http://www.w3.org/2000/svg">
<path fill-rule="evenodd" clip-rule="evenodd" d="M16.6359 65.9367C26.8019 67.452 36.9683 68.5255 47.1344 69.263C47.126 77.8168 49.0713 82.2309 51.6138 84.6405C51.2671 87.3984 51.0364 90.3831 50.9314 93.5791C50.4746 107.404 54.4221 111.673 58.4944 113.367L57.525 113.24C52.1628 112.537 46.8017 111.834 41.445 111.32C32.8275 110.497 27.1234 122.393 26.8156 142.912C26.5329 161.319 33.844 162.666 38.8353 163.585C39.0232 163.62 39.2079 163.654 39.3887 163.688C39.5451 163.718 39.6988 163.748 39.8492 163.779C45.3822 164.917 50.9192 165.863 56.4595 166.647C52.7468 171.702 50.461 181.161 50.1917 194.019C49.7954 212.423 56.8257 213.815 61.6257 214.766C61.968 214.834 62.2989 214.899 62.615 214.969C92.9869 221.629 123.539 222.055 154.077 221.853C163.384 221.791 176.347 222.375 185.226 222.776C188.945 222.944 191.947 223.079 193.665 223.121C194.308 223.134 194.925 222.89 195.486 222.668C195.988 222.469 196.446 222.288 196.84 222.323C210.407 223.654 224.766 223.518 239.135 223.382C246.929 223.308 254.727 223.234 262.402 223.394C266.384 223.481 270.379 222.918 274.371 222.357C276.15 222.106 277.929 221.856 279.706 221.663C283.43 222.84 287.143 221.914 290.844 220.99C292.598 220.552 294.349 220.115 296.098 219.903C310.701 218.135 325.31 218.265 339.925 218.396C345.253 218.443 350.581 218.491 355.91 218.446C364.717 218.372 373.525 218.334 382.334 218.296C406.021 218.195 429.713 218.093 453.4 217.27C455.057 217.215 456.706 217.574 458.349 217.931C463.285 219.003 468.169 220.065 473.097 209.89C473.186 209.716 473.362 209.439 473.45 209.3C474.904 207.038 475.078 203.368 475.251 199.704C475.336 197.916 475.42 196.129 475.654 194.507C478.866 172.039 476.648 164.882 467.865 168.118C466.146 168.751 464.337 168.021 462.582 167.313C462.393 167.236 462.205 167.161 462.018 167.087C458.153 165.56 452.002 165.17 447.467 164.883C446.742 164.837 446.059 164.794 445.432 164.749C442.678 164.556 439.771 165.359 436.928 166.146C434.11 166.925 431.353 167.687 428.866 167.446C422.223 166.787 415.587 165.811 408.954 164.766C421.144 164.555 433.334 164.254 445.525 163.773C447.247 163.705 448.962 164.054 450.671 164.401C455.794 165.44 460.865 166.47 465.921 156.276C465.977 156.138 466.109 155.936 466.206 155.789C466.232 155.75 466.255 155.715 466.273 155.686C467.768 153.405 467.925 149.713 468.082 146.034C468.158 144.258 468.234 142.485 468.46 140.875C469.563 133.059 470.001 127.097 469.722 122.781C474.415 123.789 479.078 124.137 483.906 114.707C483.971 114.581 484.09 114.4 484.185 114.257L484.185 114.257C484.22 114.203 484.252 114.155 484.276 114.117C485.792 111.864 486.014 108.188 486.236 104.518C486.344 102.737 486.451 100.958 486.707 99.3436C486.88 98.2498 487.04 97.1923 487.186 96.1704C488.26 94.9567 489.342 93.3714 490.434 91.3194C490.498 91.1932 490.618 91.012 490.713 90.8692C490.733 90.8376 490.753 90.8079 490.771 90.7811C490.783 90.7623 490.794 90.745 490.804 90.7295C492.363 88.4929 492.611 84.825 492.858 81.1653C492.979 79.3769 493.1 77.5906 493.374 75.9741C494.852 67.1893 495.415 60.7413 494.993 56.3331C498.643 56.1587 502.293 55.9747 505.942 55.7795C508.02 55.6665 510.1 55.9713 512.174 56.275C518.374 57.1836 524.514 58.0831 530.364 47.7686C530.47 47.5951 530.681 47.3004 530.787 47.1617C532.525 44.8516 532.631 41.1657 532.737 37.4902C532.788 35.7047 532.84 33.9217 533.078 32.3C536.396 9.7453 533.393 2.65325 522.5 6.17083C520.385 6.86078 518.123 6.20201 515.909 5.55696C515.657 5.48348 515.405 5.41018 515.154 5.33907C510.278 3.92433 502.553 3.73637 496.867 3.59804C495.964 3.57607 495.112 3.55535 494.332 3.53117C490.877 3.42119 487.266 4.31622 483.734 5.19191C480.232 6.05998 476.807 6.90906 473.686 6.74131C463.077 6.17315 452.464 5.08919 441.851 4.00527C425.792 2.36516 409.734 0.725176 393.697 0.872454C375.84 1.02839 358.002 2.74839 340.162 4.4685C327.18 5.72032 314.197 6.9722 301.205 7.62134C284.038 8.48368 266.861 8.7417 249.685 8.9997C233.995 9.23537 218.306 9.47103 202.626 10.1672C190.72 10.6965 178.809 10.8159 166.898 10.9353C142.217 11.1827 117.534 11.4301 92.8817 15.3231C74.32 18.256 55.5478 16.6123 36.7923 14.9701C30.2984 14.4015 23.8065 13.8331 17.3261 13.4548C6.91299 12.8296 0.302054 24.876 0.412312 45.3974C0.520137 63.7902 9.36284 64.9643 15.3942 65.7652C15.8238 65.8222 16.2391 65.8774 16.6359 65.9367Z" fill="#E4F7ED"/>
</svg>
