<svg width="36" height="36" viewBox="0 0 36 36" fill="none" xmlns="http://www.w3.org/2000/svg">
<g clip-path="url(#clip0_237_2043)">
<path fill-rule="evenodd" clip-rule="evenodd" d="M4.7573 4.75712C2.99994 6.51448 2.99994 9.3429 2.99994 14.9998V20.9998C2.99994 26.6566 2.99994 29.485 4.7573 31.2424C5.73736 32.2225 7.05055 32.656 9.00169 32.8477C9.09897 28.7758 13.0903 25.4999 17.9999 25.4999C22.9094 25.4999 26.9008 28.7758 26.9981 32.8477C28.9493 32.656 30.2625 32.2225 31.2426 31.2424C32.9999 29.485 32.9999 26.6566 32.9999 20.9998V14.9998C32.9999 9.3429 32.9999 6.51448 31.2426 4.75712C29.4852 2.99976 26.6568 2.99976 20.9999 2.99976H14.9999C9.34309 2.99976 6.51466 2.99976 4.7573 4.75712ZM17.9999 19.4999C20.4852 19.4999 22.4999 17.4852 22.4999 14.9999C22.4999 12.5146 20.4852 10.4999 17.9999 10.4999C15.5146 10.4999 13.4999 12.5146 13.4999 14.9999C13.4999 17.4852 15.5146 19.4999 17.9999 19.4999Z" fill="#48C989" fill-opacity="0.62"/>
<path d="M26.911 31.9483C26.6091 30.172 25.5532 28.5447 23.9347 27.3617C22.3162 26.1787 20.2425 25.5183 18.0898 25.5004C15.937 25.4825 13.8479 26.1082 12.2014 27.2641C10.555 28.4199 9.46022 30.0293 9.11584 31.8003" stroke="#1E6440" stroke-width="1.8"/>
<circle cx="17.9999" cy="15" r="4.5" stroke="#1E6440" stroke-width="1.8" stroke-linecap="round"/>
<rect x="3.89994" y="3.89976" width="28.2" height="28.2" rx="5.1" stroke="#1E6440" stroke-width="1.8"/>
</g>
<defs>
<clipPath id="clip0_237_2043">
<rect width="36" height="36" fill="white"/>
</clipPath>
</defs>
</svg>
