<svg width="36" height="36" viewBox="0 0 36 36" fill="none" xmlns="http://www.w3.org/2000/svg">
<g clip-path="url(#clip0_237_2044)">
<path d="M28.4999 27V12.75C28.4999 10.6433 28.4999 9.58996 27.9943 8.83329C27.7755 8.50572 27.4942 8.22447 27.1666 8.00559C26.9046 7.8305 26.607 7.71604 26.2423 7.64122C25.1253 7.41203 24.5668 7.29743 23.7528 7.60609C22.9389 7.91476 22.4426 8.57651 21.4499 9.9L20.9999 10.5H14.9999L14.5499 9.9C13.5573 8.5765 13.061 7.91476 12.247 7.60609C11.4331 7.29743 10.8746 7.41203 9.75754 7.64122C9.3929 7.71604 9.09528 7.8305 8.83323 8.00559C8.50566 8.22447 8.22441 8.50572 8.00553 8.83329C7.49994 9.58996 7.49994 10.6433 7.49994 12.75V27C7.49994 29.8284 7.49994 31.2426 8.37862 32.1213C9.2573 33 10.6715 33 13.4999 33H22.4999C25.3284 33 26.7426 33 27.6213 32.1213C28.4999 31.2426 28.4999 29.8284 28.4999 27Z" fill="#48C989" fill-opacity="0.62"/>
<path d="M23.2499 7.5C25.3566 7.5 26.41 7.5 27.1666 8.00559C27.4942 8.22447 27.7755 8.50572 27.9943 8.83329C28.4999 9.58996 28.4999 10.6433 28.4999 12.75V27C28.4999 29.8284 28.4999 31.2426 27.6213 32.1213C26.7426 33 25.3284 33 22.4999 33H13.4999C10.6715 33 9.2573 33 8.37862 32.1213C7.49994 31.2426 7.49994 29.8284 7.49994 27V12.75C7.49994 10.6433 7.49994 9.58996 8.00553 8.83329C8.22441 8.50572 8.50566 8.22447 8.83323 8.00559C9.5899 7.5 10.6432 7.5 12.7499 7.5" stroke="#1E6440" stroke-width="1.8"/>
<path d="M13.4999 7.5C13.4999 5.84315 14.8431 4.5 16.4999 4.5H19.4999C21.1568 4.5 22.4999 5.84315 22.4999 7.5C22.4999 9.15685 21.1568 10.5 19.4999 10.5H16.4999C14.8431 10.5 13.4999 9.15685 13.4999 7.5Z" stroke="#1E6440" stroke-width="1.8"/>
<path d="M13.4999 18L22.4999 18" stroke="#1E6440" stroke-width="1.8" stroke-linecap="round"/>
<path d="M13.4999 24L19.4999 24" stroke="#1E6440" stroke-width="1.8" stroke-linecap="round"/>
</g>
<defs>
<clipPath id="clip0_237_2044">
<rect width="36" height="36" fill="white"/>
</clipPath>
</defs>
</svg>
