<svg width="36" height="36" viewBox="0 0 36 36" fill="none" xmlns="http://www.w3.org/2000/svg">
<g clip-path="url(#clip0_237_2042)">
<path fill-rule="evenodd" clip-rule="evenodd" d="M17.9999 31.5C25.4558 31.5 31.4999 25.4558 31.4999 18C31.4999 10.5442 25.4558 4.5 17.9999 4.5C10.5441 4.5 4.49994 10.5442 4.49994 18C4.49994 25.4558 10.5441 31.5 17.9999 31.5ZM14.6049 11.8027L24.3166 16.6586C25.4222 17.2114 25.4222 18.7891 24.3166 19.3419L14.6049 24.1977C13.4081 24.7962 11.9999 23.9259 11.9999 22.5878V13.4127C11.9999 12.0746 13.4081 11.2043 14.6049 11.8027Z" fill="#48C989" fill-opacity="0.62"/>
<path d="M24.3167 16.6584L14.6049 11.8025C13.4081 11.2041 11.9999 12.0744 11.9999 13.4125V22.5875C11.9999 23.9256 13.4081 24.7959 14.6049 24.1975L24.3167 19.3416C25.4222 18.7889 25.4222 17.2111 24.3167 16.6584Z" stroke="#1E6440" stroke-width="1.8" stroke-linecap="round" stroke-linejoin="round"/>
<circle cx="17.9999" cy="18" r="13.5" stroke="#1E6440" stroke-width="1.8"/>
</g>
<defs>
<clipPath id="clip0_237_2042">
<rect width="36" height="36" fill="white"/>
</clipPath>
</defs>
</svg>
