<svg width="100" height="100" viewBox="0 0 100 100" fill="none" xmlns="http://www.w3.org/2000/svg">
<rect width="100" height="100" rx="50" fill="#48C989"/>
<path d="M20.9386 30.0283C25.8476 24.7065 33.2758 22.0088 43.0132 22.0088H46.5121V31.8722L43.699 32.4355C38.9055 33.3942 35.571 35.2801 33.7866 38.0478C32.6914 39.7517 32.3311 41.5712 32.2541 43.0022H39.5143H43.0132C44.9481 43.0022 46.5121 44.5662 46.5121 46.5011V70.9934C46.5121 74.8527 43.3736 77.9912 39.5143 77.9912H18.5209C16.586 77.9912 15.022 76.4272 15.022 74.4923V56.9978L15.0325 46.7845C15.001 46.3961 14.3362 37.194 20.9386 30.0283ZM78.0022 77.9912H57.0088C55.0739 77.9912 53.5099 76.4272 53.5099 74.4923V56.9978L53.5204 46.7845C53.4889 46.3961 52.8241 37.194 59.4265 30.0283C64.3355 24.7065 71.7637 22.0088 81.5011 22.0088H85V31.8722L82.1869 32.4355C77.3934 33.3942 74.0589 35.2801 72.2745 38.0478C71.1793 39.7517 70.819 41.5712 70.742 43.0022H78.0022H81.5011C83.436 43.0022 85 44.5662 85 46.5011V70.9934C85 74.8527 81.8615 77.9912 78.0022 77.9912Z" fill="#1E6440"/>
</svg>
